<svg xmlns="http://www.w3.org/2000/svg" xml:space="preserve" width="1080" height="1080"><rect width="100" height="100" x="-50" y="-50" fill="none" rx="0" ry="0" style="stroke:none;stroke-width:1;stroke-dasharray:none;stroke-linecap:butt;stroke-dashoffset:0;stroke-linejoin:miter;stroke-miterlimit:4;fill:#fff;fill-opacity:0;fill-rule:nonzero;opacity:1" transform="translate(50 50)" vector-effect="non-scaling-stroke"/><path stroke-linecap="round" d="M185.54 143.1q-.43-.64-1.24-.68-.56-.02-1.06-.29c-6.81-3.68-14.05-7.74-21.79-4.59q-3.43 1.4-8.01 6.16-5.44 5.66-11.42 11.47-5.84 5.68-5.84 12.26 0 4.13 2.69 9.76 3.16 6.6 6.01 13c3.4 7.67-.05 14.78-3.41 21.67q-2.47 5.07-8.29 7.3-7.14 2.75-15.25 5.7c-7.16 2.61-12.06 6.94-12.34 15.21q-.21 6.43-.06 12.93.01.5.51.5h71.41q.64 0 .62-.65c-.82-27.25 14.7-52.97 38.74-65.79q18.12-9.66 38.74-8.39 19.72 1.2 36.27 12.41c19.89 13.47 31.67 35.33 32.15 59.31q.03 1.25-.17 2.52a.52.52 0 0 0 .51.59h72.16a.37.37 0 0 0 .32-.56q-.09-.15-.17-.3-.07-.12-.07-.26c.06-5.44 1.05-13.29-.79-17.7-2.7-6.48-8.48-9.19-14.99-11.03-1.76-.49-3.17-1.57-4.88-2.04q-5.79-1.6-9.96-4.3c-4.26-2.77-6.23-7.52-8.12-12.09-2.38-5.75-2.61-10.98.25-16.7q3.32-6.68 6.32-13.51c2.07-4.73 2.48-8.78.5-13.61q-1.34-3.24-5.31-7.12-6.66-6.49-13.34-13.31c-.78-.8-1.83-1.02-2.5-1.78q-.68-.76-1.66-1.19-4.6-2.05-9.02-1.55c-5.1.58-9.58 3.83-14.35 5.67-3.89 1.5-7.17 4.01-11.47 4.37q-4.32.36-8.06-1.12-3.21-1.27-6.39-2.61-7.37-3.13-9.72-9.82-3.33-9.5-6.7-17.67-2.34-5.69-7.99-8.13-3.9-1.69-9.91-1.46-7.52.28-14.81 0c-7.75-.3-14.55 2.09-17.6 9.31q-3.02 7.18-6.45 16.87-2.64 7.49-9.45 10.56c-6.02 2.72-12.07 5.48-18.46 3.31-1.81-.62-3.54-2.06-5.48-2.24q-.43-.04-.67-.39" style="stroke:#757d7b;stroke-width:2;stroke-dasharray:none;stroke-linecap:butt;stroke-dashoffset:0;stroke-linejoin:miter;stroke-miterlimit:4;fill:none;fill-rule:nonzero;opacity:1" transform="matrix(3.04 0 0 3.04 -222.796 -224.012)" vector-effect="non-scaling-stroke"/><path stroke-linecap="round" d="m200.67 253.42 100.66.18a.69.69 0 0 0 .69-.69l.01-1.01c.024-13.574-5.286-26.601-14.762-36.216-9.476-9.615-22.343-15.03-35.768-15.054h-.8c-27.956-.05-50.66 22.824-50.71 51.09v1.01a.69.69 0 0 0 .68.69" style="stroke:#757d7b;stroke-width:2;stroke-dasharray:none;stroke-linecap:butt;stroke-dashoffset:0;stroke-linejoin:miter;stroke-miterlimit:4;fill:none;fill-rule:nonzero;opacity:1" transform="matrix(3.04 0 0 3.04 -222.76 -223.994)" vector-effect="non-scaling-stroke"/><path stroke-linecap="round" d="M118.84 292.51c-1.79 3.53-6.37 1.38-8.52-.62q-.85-.79-1.03.36l-.28 1.7a1.545 1.545 0 0 0 .66 1.53c5.72 3.78 13.8 2.07 13.21-6.18-.25-3.46-4.76-5.84-7.55-7.39-4.06-2.27-2.46-7.43 2.15-6.3q1.85.44 3.35 1.38.55.34.76-.27l.68-1.89q.21-.59-.34-.89c-4.78-2.6-10.91-1.92-12.6 3.78-1.58 5.32 4.43 7.88 7.87 9.99q3.11 1.9 1.64 4.8" style="stroke:#757d7b;stroke-width:2;stroke-dasharray:none;stroke-linecap:butt;stroke-dashoffset:0;stroke-linejoin:miter;stroke-miterlimit:4;fill:none;fill-rule:nonzero;opacity:1" transform="matrix(3.04 0 0 3.04 -222.648 -224.068)" vector-effect="non-scaling-stroke"/><path stroke-linecap="round" d="M197.68 290.77h7.2q.64 0 .86.6l1.91 5.22q.15.41.59.41h3.41q.36 0 .24-.34l-8.79-23.7q-.2-.52-.75-.46-.9.09-1.69.46c-.244.115-.434.32-.53.57l-8.87 23.02q-.16.42.29.43l2.66.03q.53.01.72-.49l1.97-5.21q.2-.54.78-.54" style="stroke:#757d7b;stroke-width:2;stroke-dasharray:none;stroke-linecap:butt;stroke-dashoffset:0;stroke-linejoin:miter;stroke-miterlimit:4;fill:none;fill-rule:nonzero;opacity:1" transform="matrix(3.04 0 0 3.04 -222.712 -224.07)" vector-effect="non-scaling-stroke"/><path stroke-linecap="round" d="M225.06 294.12c-3.51.04-6.51-3.06-7.28-6.37q-1.52-6.49 3.3-10.7c2.59-2.26 6.57-1.67 9.18.85q.68.66 1.21-.13l1.08-1.59a.765.765 0 0 0-.17-1.05c-4.93-3.71-11.96-3.64-15.91 1.49q-4.07 5.29-2.61 12.17c1.92 9.07 12.1 10.78 18.81 5.93q.65-.48.39-1.24l-.65-1.86q-.21-.6-.7-.2-3.3 2.66-6.65 2.7" style="stroke:#757d7b;stroke-width:2;stroke-dasharray:none;stroke-linecap:butt;stroke-dashoffset:0;stroke-linejoin:miter;stroke-miterlimit:4;fill:none;fill-rule:nonzero;opacity:1" transform="matrix(3.04 0 0 3.04 -222.764 -224.068)" vector-effect="non-scaling-stroke"/><path stroke-linecap="round" d="M306.917 297.466c2.856.31 5.738-.714 8.012-2.847 2.275-2.134 3.756-5.202 4.118-8.53.752-6.928-3.458-13.07-9.404-13.715-2.856-.31-5.738.714-8.012 2.847-2.275 2.134-3.756 5.202-4.118 8.53-.752 6.928 3.458 13.07 9.404 13.715" style="stroke:#757d7b;stroke-width:2;stroke-dasharray:none;stroke-linecap:butt;stroke-dashoffset:0;stroke-linejoin:miter;stroke-miterlimit:4;fill:none;fill-rule:nonzero;opacity:1" transform="matrix(3.04 0 0 3.04 -222.801 -224.067)" vector-effect="non-scaling-stroke"/><path stroke-linecap="round" d="m416.03 276.79.75-2.04q.2-.52-.29-.79c-4.24-2.32-10.64-2.17-12.41 3.07-3.16 9.35 11.59 8.78 9.51 14.93-1.54 4.57-6.99 1.7-9.38-.54a.2.2 0 0 0-.33.12l-.36 2.9q-.05.38.25.63c4.78 4.11 13.06 3.05 13.66-4.41.38-4.79-4.4-6.87-7.89-8.96-2.37-1.42-3.18-4.91-.07-5.94q2.67-.89 5.81 1.27.53.36.75-.24" style="stroke:#757d7b;stroke-width:2;stroke-dasharray:none;stroke-linecap:butt;stroke-dashoffset:0;stroke-linejoin:miter;stroke-miterlimit:4;fill:none;fill-rule:nonzero;opacity:1" transform="matrix(3.04 0 0 3.04 -222.859 -224.08)" vector-effect="non-scaling-stroke"/><path stroke-linecap="round" d="M100 288.37c-.14 2.45-1.73 4.92-4.14 5.66-4.27 1.32-7.43-2.38-7.49-6.43q-.1-7.08-.04-14.34 0-.36-.36-.35l-3.21.02q-.42 0-.38.42.63 6 .31 12.61c-.21 4.25.9 9.37 5.37 10.85 6.09 2.02 13.08-1.34 13.33-8.42q.24-6.79.09-15.17a.34.34 0 0 0-.35-.33l-3.1.05a.29.29 0 0 0-.28.32q.72 6.97.25 15.11" style="stroke:#757d7b;stroke-width:2;stroke-dasharray:none;stroke-linecap:butt;stroke-dashoffset:0;stroke-linejoin:miter;stroke-miterlimit:4;fill:none;fill-rule:nonzero;opacity:1" transform="matrix(3.04 0 0 3.04 -222.619 -224.076)" vector-effect="non-scaling-stroke"/><path stroke-linecap="round" d="M181 276.35a.35.35 0 0 1 .35-.35h7.83a.35.35 0 0 0 .35-.35l-.02-2.38a.35.35 0 0 0-.35-.35l-11.61.01a.35.35 0 0 0-.35.35l.19 23.37a.35.35 0 0 0 .35.35H189a.35.35 0 0 0 .34-.27l.56-2.34a.35.35 0 0 0-.34-.43l-8.21-.01a.35.35 0 0 1-.35-.35v-7.04a.35.35 0 0 1 .35-.35l6.18-.01a.35.35 0 0 0 .34-.26l.6-2.36a.35.35 0 0 0-.34-.44l-6.77-.01a.35.35 0 0 1-.35-.35l-.01-6.43" style="stroke:#757d7b;stroke-width:2;stroke-dasharray:none;stroke-linecap:butt;stroke-dashoffset:0;stroke-linejoin:miter;stroke-miterlimit:4;fill:none;fill-rule:nonzero;opacity:1" transform="matrix(3.04 0 0 3.04 -222.682 -224.078)" vector-effect="non-scaling-stroke"/><path stroke-linecap="round" d="M132.01 276.36a.35.35 0 0 1 .35-.35l7.82-.01a.35.35 0 0 0 .35-.35l-.02-2.37a.35.35 0 0 0-.35-.35h-11.6a.35.35 0 0 0-.35.35l.18 23.37a.35.35 0 0 0 .35.35H140a.35.35 0 0 0 .34-.27l.55-2.33a.35.35 0 0 0-.34-.43l-8.19-.04a.35.35 0 0 1-.35-.35l-.01-7.01a.35.35 0 0 1 .35-.35l6.19-.02a.35.35 0 0 0 .34-.26l.58-2.37a.35.35 0 0 0-.34-.43l-6.78-.01a.35.35 0 0 1-.35-.35l.02-6.42" style="stroke:#757d7b;stroke-width:2;stroke-dasharray:none;stroke-linecap:butt;stroke-dashoffset:0;stroke-linejoin:miter;stroke-miterlimit:4;fill:none;fill-rule:nonzero;opacity:1" transform="matrix(3.04 0 0 3.04 -222.642 -224.109)" vector-effect="non-scaling-stroke"/><path stroke-linecap="round" d="M166.63 286.72c5.69-3.35 5.09-11.91-1.77-13.46q-3.07-.7-8.46-.31-.47.04-.47.52l.14 23.07q.01.46.47.46h2.92q.47 0 .46-.46l-.26-7.83q-.02-.65.63-.61l1.77.1q.4.02.63.35l5.44 7.67q.55.78 1.52.78h3.03q.87 0 .35-.69l-6.57-8.73q-.4-.53.17-.86" style="stroke:#757d7b;stroke-width:2;stroke-dasharray:none;stroke-linecap:butt;stroke-dashoffset:0;stroke-linejoin:miter;stroke-miterlimit:4;fill:none;fill-rule:nonzero;opacity:1" transform="matrix(3.04 0 0 3.04 -222.706 -224.044)" vector-effect="non-scaling-stroke"/><path stroke-linecap="round" d="M241.43 276.02a.35.35 0 0 1 .35.35l.01 20.26a.35.35 0 0 0 .35.35l3.03.03a.35.35 0 0 0 .36-.36l-.15-20.27a.35.35 0 0 1 .35-.35l7.16-.01a.35.35 0 0 0 .35-.35l-.02-2.39a.35.35 0 0 0-.35-.35l-18.28-.01a.35.35 0 0 0-.35.35l.02 2.4c0 .193.157.35.35.35h6.82" style="stroke:#757d7b;stroke-width:2;stroke-dasharray:none;stroke-linecap:butt;stroke-dashoffset:0;stroke-linejoin:miter;stroke-miterlimit:4;fill:none;fill-rule:nonzero;opacity:1" transform="matrix(3.04 0 0 3.04 -222.75 -224.099)" vector-effect="non-scaling-stroke"/><path stroke-linecap="round" d="m279.81 284.77 4.32 11.86q.13.36.51.44l1.77.37a.53.53 0 0 0 .6-.33q4.54-11.77 9.13-23.63a.44.44 0 0 0-.41-.6l-2.53.03q-.66.01-.89.62-3.08 8.27-6.09 16.3-.59 1.57-.66-.11-.02-.4-.16-.78-2.74-7.5-5.46-15.27-.27-.77-1.08-.76l-2.6.02a.61.61 0 0 0-.57.83l1.89 4.86q.32.81.01 1.63l-3.58 9.48q-.32.85-.63-.01l-5.78-16.33q-.16-.45-.64-.46l-3.65-.02q-.45 0-.27.41 4.79 11.27 8.61 22.85.2.6.76.87.78.38 1.65.3a.7.7 0 0 0 .58-.44l4.67-12.14q.25-.66.5.01" style="stroke:#757d7b;stroke-width:2;stroke-dasharray:none;stroke-linecap:butt;stroke-dashoffset:0;stroke-linejoin:miter;stroke-miterlimit:4;fill:none;fill-rule:nonzero;opacity:1" transform="matrix(3.04 0 0 3.04 -222.782 -224.097)" vector-effect="non-scaling-stroke"/><path stroke-linecap="round" d="M334.94 286.72c6.4-4.24 4.42-13.71-3.88-13.77q-3.32-.02-6.32-.05-.54 0-.53.54l.18 22.88c.005.377.308.68.68.68h2.52q.64 0 .61-.63-.18-3.46-.34-7.74-.01-.05.03-.09a2.134 2.134 0 0 1 1.707-.525c.629.08 1.207.423 1.593.945q2.54 3.44 5.12 7.21.58.84 1.6.83h3.02q.88-.01.35-.71l-6.51-8.62q-.42-.56.17-.95" style="stroke:#757d7b;stroke-width:2;stroke-dasharray:none;stroke-linecap:butt;stroke-dashoffset:0;stroke-linejoin:miter;stroke-miterlimit:4;fill:none;fill-rule:nonzero;opacity:1" transform="matrix(3.04 0 0 3.04 -222.797 -224.068)" vector-effect="non-scaling-stroke"/><path stroke-linecap="round" d="M349.23 282.57v-9.37q0-.28-.28-.28l-3.31.01q-.18 0-.17.18l.18 23.46q.01.43.43.43h2.87q.44 0 .43-.44l-.23-9.76q-.03-1.43.83-.29l7.33 9.76q.56.73 1.47.73h3.17q.91 0 .35-.72l-9.02-11.56q-.28-.36.01-.71l9-10.82a.15.15 0 0 0-.11-.24l-4.44-.05q-.28-.01-.43.23-3.1 4.96-7.47 9.68-.61.67-.61-.24" style="stroke:#757d7b;stroke-width:2;stroke-dasharray:none;stroke-linecap:butt;stroke-dashoffset:0;stroke-linejoin:miter;stroke-miterlimit:4;fill:none;fill-rule:nonzero;opacity:1" transform="matrix(3.04 0 0 3.04 -222.863 -224.068)" vector-effect="non-scaling-stroke"/><path stroke-linecap="round" d="M370.01 276.35a.35.35 0 0 1 .35-.35h7.82a.35.35 0 0 0 .35-.35l-.02-2.37a.35.35 0 0 0-.35-.35l-11.6-.01a.35.35 0 0 0-.35.35l.18 23.38a.35.35 0 0 0 .35.35H378a.35.35 0 0 0 .34-.27l.56-2.33a.35.35 0 0 0-.34-.43l-8.21-.04a.35.35 0 0 1-.35-.35l.01-7.01a.35.35 0 0 1 .35-.35l6.18-.02a.35.35 0 0 0 .34-.26l.58-2.37a.35.35 0 0 0-.34-.43l-6.77-.01a.35.35 0 0 1-.35-.35l.01-6.43" style="stroke:#757d7b;stroke-width:2;stroke-dasharray:none;stroke-linecap:butt;stroke-dashoffset:0;stroke-linejoin:miter;stroke-miterlimit:4;fill:none;fill-rule:nonzero;opacity:1" transform="matrix(3.04 0 0 3.04 -222.862 -224.078)" vector-effect="non-scaling-stroke"/><path stroke-linecap="round" d="M394.96 286.69c6.16-4.06 4.54-13.53-3.54-13.71q-3.41-.08-6.69-.07-.53 0-.52.53l.18 22.88c.005.377.308.68.68.68h2.64q.46 0 .44-.46l-.2-7.95q-.01-.36.34-.43c1.09-.23 2.36-.08 3.06.93q2.73 3.93 5.18 7.33c.27.365.696.58 1.15.58h3.12q1.01 0 .4-.81l-6.41-8.5q-.44-.59.17-1" style="stroke:#757d7b;stroke-width:2;stroke-dasharray:none;stroke-linecap:butt;stroke-dashoffset:0;stroke-linejoin:miter;stroke-miterlimit:4;fill:none;fill-rule:nonzero;opacity:1" transform="matrix(3.04 0 0 3.04 -222.856 -224.038)" vector-effect="non-scaling-stroke"/><path stroke-linecap="round" d="M345.87 361.87q4.21-4 9.41-9.25c6.43-6.49 11.39-10.08 10.74-18.87q-.25-3.44-2.51-8-2.25-4.53-4.09-9.17a1.82 1.82 0 0 0-1.69-1.14q-35.94.03-69.09-.01c-3.49 0-6.82 2.69-10.12 3.77-2.82.92-5.61 2.06-8.49 2.81q-23.32 6.12-46.02-2.64c-3.35-1.3-6.59-3.94-10.28-3.94q-34.73.03-68.72 0-1.79 0-2.44 1.68-1.75 4.54-3.91 8.89c-3.64 7.35-3.53 14.68 2.45 20.6q6.76 6.68 13.4 13.52c4.16 4.28 8.22 6.55 14.54 6.16q2.92-.18 10.41-3.77 4.32-2.08 8.52-3.99 4.71-2.14 7.81-2.3c4.77-.26 8.11 1.5 12.38 3.1q2.74 1.03 4.06 1.89 5.11 3.33 6.8 8.04 2.76 7.72 5.71 15.39c2.09 5.4 3.88 8.56 9.33 10.98q3.46 1.55 9.14 1.42 8.3-.18 16.68.02c5.34.14 10.2-1.29 13.66-5.08q2.47-2.7 4.53-8.45 1.88-5.26 3.82-10.64c2.29-6.35 5.33-10.73 11.4-13.23q2.9-1.2 6.25-2.47c4.49-1.7 8.95-1.22 13.56.8q6.08 2.68 11.7 5.43 5.96 2.92 9.96 2.94 6.36.03 11.1-4.49" style="stroke:#757d7b;stroke-width:2;stroke-dasharray:none;stroke-linecap:butt;stroke-dashoffset:0;stroke-linejoin:miter;stroke-miterlimit:4;fill:none;fill-rule:nonzero;opacity:1" transform="matrix(3.04 0 0 3.04 -222.796 -224.13)" vector-effect="non-scaling-stroke"/><path stroke-linecap="round" d="M198.38 287.28a.31.31 0 0 0 .29.42l5.38.04a.31.31 0 0 0 .29-.42L201.7 280a.31.31 0 0 0-.58-.01l-2.74 7.29" style="stroke:#757d7b;stroke-width:2;stroke-dasharray:none;stroke-linecap:butt;stroke-dashoffset:0;stroke-linejoin:miter;stroke-miterlimit:4;fill:none;fill-rule:nonzero;opacity:1" transform="matrix(3.04 0 0 3.04 -222.714 -224.1)" vector-effect="non-scaling-stroke"/><path stroke-linecap="round" d="M308.276 294.42c1.796-.003 3.516-1.004 4.783-2.782 1.266-1.778 1.975-4.188 1.971-6.7-.004-2.511-.722-4.919-1.995-6.693-1.272-1.773-2.996-2.768-4.792-2.765-1.795.003-3.515 1.004-4.782 2.782-1.266 1.778-1.975 4.188-1.971 6.7.004 2.511.722 4.919 1.995 6.693 1.272 1.773 2.996 2.768 4.791 2.765" style="stroke:#757d7b;stroke-width:2;stroke-dasharray:none;stroke-linecap:butt;stroke-dashoffset:0;stroke-linejoin:miter;stroke-miterlimit:4;fill:none;fill-rule:nonzero;opacity:1" transform="matrix(3.04 0 0 3.04 -222.81 -224.078)" vector-effect="non-scaling-stroke"/><path stroke-linecap="round" d="m159.74 276.26-.02 8.4a.32.32 0 0 0 .31.32h1.48c1.332.006 2.611-.448 3.556-1.262.945-.814 1.48-1.921 1.484-3.078v-.32c.01-2.407-2.228-4.368-5-4.38h-1.48a.32.32 0 0 0-.33.32" style="stroke:#757d7b;stroke-width:2;stroke-dasharray:none;stroke-linecap:butt;stroke-dashoffset:0;stroke-linejoin:miter;stroke-miterlimit:4;fill:none;fill-rule:nonzero;opacity:1" transform="matrix(3.04 0 0 3.04 -222.726 -224.068)" vector-effect="non-scaling-stroke"/><path stroke-linecap="round" d="m328.01 276.26-.02 8.4a.32.32 0 0 0 .31.32h1.44c1.337.006 2.621-.45 3.57-1.265.95-.816 1.485-1.926 1.49-3.085v-.3c.01-2.413-2.237-4.378-5.02-4.39h-1.44a.32.32 0 0 0-.33.32" style="stroke:#757d7b;stroke-width:2;stroke-dasharray:none;stroke-linecap:butt;stroke-dashoffset:0;stroke-linejoin:miter;stroke-miterlimit:4;fill:none;fill-rule:nonzero;opacity:1" transform="matrix(3.04 0 0 3.04 -222.866 -224.068)" vector-effect="non-scaling-stroke"/><path stroke-linecap="round" d="m388.01 276.26-.02 8.4a.32.32 0 0 0 .31.32h1.44c1.337.006 2.621-.448 3.57-1.262.95-.814 1.485-1.921 1.49-3.078v-.32c.01-2.407-2.237-4.368-5.02-4.38h-1.44a.32.32 0 0 0-.33.32" style="stroke:#757d7b;stroke-width:2;stroke-dasharray:none;stroke-linecap:butt;stroke-dashoffset:0;stroke-linejoin:miter;stroke-miterlimit:4;fill:none;fill-rule:nonzero;opacity:1" transform="matrix(3.04 0 0 3.04 -222.916 -224.068)" vector-effect="non-scaling-stroke"/><path d="M186.21 143.49c1.94.18 3.67 1.62 5.48 2.24 6.39 2.17 12.44-.59 18.46-3.31q6.81-3.07 9.45-10.56 3.43-9.69 6.45-16.87c3.05-7.22 9.85-9.61 17.6-9.31q7.29.28 14.81 0 6.01-.23 9.91 1.46 5.65 2.44 7.99 8.13 3.37 8.17 6.7 17.67 2.35 6.69 9.72 9.82 3.18 1.34 6.39 2.61 3.74 1.48 8.06 1.12c4.3-.36 7.58-2.87 11.47-4.37 4.77-1.84 9.25-5.09 14.35-5.67q4.42-.5 9.02 1.55.98.43 1.66 1.19c.67.76 1.72.98 2.5 1.78q6.68 6.82 13.34 13.31 3.97 3.88 5.31 7.12c1.98 4.83 1.57 8.88-.5 13.61q-3 6.83-6.32 13.51c-2.86 5.72-2.63 10.95-.25 16.7 1.89 4.57 3.86 9.32 8.12 12.09q4.17 2.7 9.96 4.3c1.71.47 3.12 1.55 4.88 2.04 6.51 1.84 12.29 4.55 14.99 11.03 1.84 4.41.85 12.26.79 17.7q0 .14.07.26.08.15.17.3a.37.37 0 0 1-.32.56h-72.16a.52.52 0 0 1-.51-.59q.2-1.27.17-2.52c-.48-23.98-12.26-45.84-32.15-59.31q-16.55-11.21-36.27-12.41-20.62-1.27-38.74 8.39c-24.04 12.82-39.56 38.54-38.74 65.79q.02.65-.62.65h-71.41q-.5 0-.51-.5-.15-6.5.06-12.93c.28-8.27 5.18-12.6 12.34-15.21q8.11-2.95 15.25-5.7 5.82-2.23 8.29-7.3c3.36-6.89 6.81-14 3.41-21.67q-2.85-6.4-6.01-13-2.69-5.63-2.69-9.76 0-6.58 5.84-12.26 5.98-5.81 11.42-11.47 4.58-4.76 8.01-6.16c7.74-3.15 14.98.91 21.79 4.59q.5.27 1.06.29.81.04 1.24.68.24.35.67.39Z" style="stroke:none;stroke-width:1;stroke-dasharray:none;stroke-linecap:butt;stroke-dashoffset:0;stroke-linejoin:miter;stroke-miterlimit:4;fill:#000;fill-rule:nonzero;opacity:1" transform="matrix(3.04 0 0 3.04 -222.796 -224.012)" vector-effect="non-scaling-stroke"/><path d="M200.67 253.42a.69.69 0 0 1-.68-.69v-1.01c.05-28.266 22.754-51.14 50.71-51.09h.8c13.425.024 26.292 5.439 35.768 15.054 9.476 9.615 14.786 22.642 14.762 36.216l-.01 1.01a.69.69 0 0 1-.69.69l-100.66-.18Z" style="stroke:none;stroke-width:1;stroke-dasharray:none;stroke-linecap:butt;stroke-dashoffset:0;stroke-linejoin:miter;stroke-miterlimit:4;fill:#000;fill-rule:nonzero;opacity:1" transform="matrix(3.04 0 0 3.04 -222.76 -223.994)" vector-effect="non-scaling-stroke"/><path d="M118.84 292.51q1.47-2.9-1.64-4.8c-3.44-2.11-9.45-4.67-7.87-9.99 1.69-5.7 7.82-6.38 12.6-3.78q.55.3.34.89l-.68 1.89q-.21.61-.76.27-1.5-.94-3.35-1.38c-4.61-1.13-6.21 4.03-2.15 6.3 2.79 1.55 7.3 3.93 7.55 7.39.59 8.25-7.49 9.96-13.21 6.18a1.545 1.545 0 0 1-.66-1.53l.28-1.7q.18-1.15 1.03-.36c2.15 2 6.73 4.15 8.52.62Z" style="stroke:none;stroke-width:1;stroke-dasharray:none;stroke-linecap:butt;stroke-dashoffset:0;stroke-linejoin:miter;stroke-miterlimit:4;fill:#000;fill-rule:nonzero;opacity:1" transform="matrix(3.04 0 0 3.04 -222.648 -224.068)" vector-effect="non-scaling-stroke"/><path d="m196.9 291.31-1.97 5.21q-.19.5-.72.49l-2.66-.03q-.45-.01-.29-.43l8.87-23.02c.096-.25.286-.455.53-.57q.79-.37 1.69-.46.55-.06.75.46l8.79 23.7q.12.34-.24.34h-3.41q-.44 0-.59-.41l-1.91-5.22q-.22-.6-.86-.6h-7.2q-.58 0-.78.54Zm1.48-4.03a.31.31 0 0 0 .29.42l5.38.04a.31.31 0 0 0 .29-.42L201.7 280a.31.31 0 0 0-.58-.01l-2.74 7.29Z" style="stroke:none;stroke-width:1;stroke-dasharray:none;stroke-linecap:butt;stroke-dashoffset:0;stroke-linejoin:miter;stroke-miterlimit:4;fill:#000;fill-rule:nonzero;opacity:1" transform="matrix(3.04 0 0 3.04 -222.712 -224.07)" vector-effect="non-scaling-stroke"/><path d="M225.06 294.12q3.35-.04 6.65-2.7.49-.4.7.2l.65 1.86q.26.76-.39 1.24c-6.71 4.85-16.89 3.14-18.81-5.93q-1.46-6.88 2.61-12.17c3.95-5.13 10.98-5.2 15.91-1.49.33.243.405.708.17 1.05l-1.08 1.59q-.53.79-1.21.13c-2.61-2.52-6.59-3.11-9.18-.85q-4.82 4.21-3.3 10.7c.77 3.31 3.77 6.41 7.28 6.37Z" style="stroke:none;stroke-width:1;stroke-dasharray:none;stroke-linecap:butt;stroke-dashoffset:0;stroke-linejoin:miter;stroke-miterlimit:4;fill:#000;fill-rule:nonzero;opacity:1" transform="matrix(3.04 0 0 3.04 -222.764 -224.068)" vector-effect="non-scaling-stroke"/><path d="M306.917 297.466c-5.946-.646-10.156-6.787-9.404-13.716.362-3.327 1.843-6.395 4.118-8.529 2.274-2.133 5.156-3.157 8.012-2.847 5.946.646 10.156 6.787 9.404 13.716-.362 3.327-1.843 6.395-4.118 8.529-2.274 2.133-5.156 3.157-8.012 2.847Zm1.36-3.046c1.795-.003 3.515-1.004 4.782-2.782 1.266-1.778 1.975-4.188 1.971-6.7-.004-2.511-.722-4.919-1.995-6.693-1.272-1.773-2.996-2.768-4.792-2.765-1.795.003-3.515 1.004-4.782 2.782-1.266 1.778-1.975 4.188-1.971 6.7.004 2.511.722 4.919 1.995 6.693 1.272 1.773 2.996 2.768 4.791 2.765Z" style="stroke:none;stroke-width:1;stroke-dasharray:none;stroke-linecap:butt;stroke-dashoffset:0;stroke-linejoin:miter;stroke-miterlimit:4;fill:#000;fill-rule:nonzero;opacity:1" transform="matrix(3.04 0 0 3.04 -222.801 -224.067)" vector-effect="non-scaling-stroke"/><path d="M415.28 277.03q-3.14-2.16-5.81-1.27c-3.11 1.03-2.3 4.52.07 5.94 3.49 2.09 8.27 4.17 7.89 8.96-.6 7.46-8.88 8.52-13.66 4.41q-.3-.25-.25-.63l.36-2.9a.2.2 0 0 1 .33-.12c2.39 2.24 7.84 5.11 9.38.54 2.08-6.15-12.67-5.58-9.51-14.93 1.77-5.24 8.17-5.39 12.41-3.07q.49.27.29.79l-.75 2.04q-.22.6-.75.24Z" style="stroke:none;stroke-width:1;stroke-dasharray:none;stroke-linecap:butt;stroke-dashoffset:0;stroke-linejoin:miter;stroke-miterlimit:4;fill:#000;fill-rule:nonzero;opacity:1" transform="matrix(3.04 0 0 3.04 -222.859 -224.08)" vector-effect="non-scaling-stroke"/><path d="M100 288.37q.47-8.14-.25-15.11a.29.29 0 0 1 .28-.32l3.1-.05a.34.34 0 0 1 .35.33q.15 8.38-.09 15.17c-.25 7.08-7.24 10.44-13.33 8.42-4.47-1.48-5.58-6.6-5.37-10.85q.32-6.61-.31-12.61-.04-.42.38-.42l3.21-.02q.36-.01.36.35-.06 7.26.04 14.34c.06 4.05 3.22 7.75 7.49 6.43 2.41-.74 4-3.21 4.14-5.66Z" style="stroke:none;stroke-width:1;stroke-dasharray:none;stroke-linecap:butt;stroke-dashoffset:0;stroke-linejoin:miter;stroke-miterlimit:4;fill:#000;fill-rule:nonzero;opacity:1" transform="matrix(3.04 0 0 3.04 -222.619 -224.076)" vector-effect="non-scaling-stroke"/><path d="m181 276.35.01 6.43a.35.35 0 0 0 .35.35l6.77.01a.35.35 0 0 1 .34.44l-.6 2.36a.35.35 0 0 1-.34.26l-6.18.01a.35.35 0 0 0-.35.35v7.04c0 .193.157.35.35.35l8.21.01a.35.35 0 0 1 .34.43l-.56 2.34a.35.35 0 0 1-.34.27h-11.26a.35.35 0 0 1-.35-.35l-.19-23.37a.35.35 0 0 1 .35-.35l11.61-.01a.35.35 0 0 1 .35.35l.02 2.38a.35.35 0 0 1-.35.35h-7.83a.35.35 0 0 0-.35.35Z" style="stroke:none;stroke-width:1;stroke-dasharray:none;stroke-linecap:butt;stroke-dashoffset:0;stroke-linejoin:miter;stroke-miterlimit:4;fill:#000;fill-rule:nonzero;opacity:1" transform="matrix(3.04 0 0 3.04 -222.682 -224.078)" vector-effect="non-scaling-stroke"/><path d="m132.01 276.36-.02 6.42a.35.35 0 0 0 .35.35l6.78.01a.35.35 0 0 1 .34.43l-.58 2.37a.35.35 0 0 1-.34.26l-6.19.02a.35.35 0 0 0-.35.35l.01 7.01a.35.35 0 0 0 .35.35l8.19.04a.35.35 0 0 1 .34.43l-.55 2.33a.35.35 0 0 1-.34.27h-11.26a.35.35 0 0 1-.35-.35l-.18-23.37a.35.35 0 0 1 .35-.35h11.6a.35.35 0 0 1 .35.35l.02 2.37a.35.35 0 0 1-.35.35l-7.82.01a.35.35 0 0 0-.35.35Z" style="stroke:none;stroke-width:1;stroke-dasharray:none;stroke-linecap:butt;stroke-dashoffset:0;stroke-linejoin:miter;stroke-miterlimit:4;fill:#000;fill-rule:nonzero;opacity:1" transform="matrix(3.04 0 0 3.04 -222.642 -224.109)" vector-effect="non-scaling-stroke"/><path d="m166.46 287.58 6.57 8.73q.52.69-.35.69h-3.03q-.97 0-1.52-.78l-5.44-7.67q-.23-.33-.63-.35l-1.77-.1q-.65-.04-.63.61l.26 7.83q.01.46-.46.46h-2.92q-.46 0-.47-.46l-.14-23.07q0-.48.47-.52 5.39-.39 8.46.31c6.86 1.55 7.46 10.11 1.77 13.46q-.57.33-.17.86Zm-6.72-11.32-.02 8.4a.32.32 0 0 0 .31.32h1.48c1.332.006 2.611-.448 3.556-1.262.945-.814 1.48-1.921 1.484-3.078v-.32c.01-2.407-2.228-4.368-5-4.38h-1.48a.32.32 0 0 0-.33.32Z" style="stroke:none;stroke-width:1;stroke-dasharray:none;stroke-linecap:butt;stroke-dashoffset:0;stroke-linejoin:miter;stroke-miterlimit:4;fill:#000;fill-rule:nonzero;opacity:1" transform="matrix(3.04 0 0 3.04 -222.706 -224.044)" vector-effect="non-scaling-stroke"/><path d="M241.43 276.02h-6.82a.35.35 0 0 1-.35-.35l-.02-2.4a.35.35 0 0 1 .35-.35l18.28.01a.35.35 0 0 1 .35.35l.02 2.39a.35.35 0 0 1-.35.35l-7.16.01a.35.35 0 0 0-.35.35l.15 20.27a.35.35 0 0 1-.36.36l-3.03-.03a.35.35 0 0 1-.35-.35l-.01-20.26a.35.35 0 0 0-.35-.35Z" style="stroke:none;stroke-width:1;stroke-dasharray:none;stroke-linecap:butt;stroke-dashoffset:0;stroke-linejoin:miter;stroke-miterlimit:4;fill:#000;fill-rule:nonzero;opacity:1" transform="matrix(3.04 0 0 3.04 -222.75 -224.099)" vector-effect="non-scaling-stroke"/><path d="m279.31 284.76-4.67 12.14a.7.7 0 0 1-.58.44q-.87.08-1.65-.3-.56-.27-.76-.87-3.82-11.58-8.61-22.85-.18-.41.27-.41l3.65.02q.48.01.64.46l5.78 16.33q.31.86.63.01l3.58-9.48q.31-.82-.01-1.63l-1.89-4.86a.61.61 0 0 1 .57-.83l2.6-.02q.81-.01 1.08.76 2.72 7.77 5.46 15.27.14.38.16.78.07 1.68.66.11 3.01-8.03 6.09-16.3.23-.61.89-.62l2.53-.03a.44.44 0 0 1 .41.6q-4.59 11.86-9.13 23.63a.53.53 0 0 1-.6.33l-1.77-.37q-.38-.08-.51-.44l-4.32-11.86q-.25-.67-.5-.01Z" style="stroke:none;stroke-width:1;stroke-dasharray:none;stroke-linecap:butt;stroke-dashoffset:0;stroke-linejoin:miter;stroke-miterlimit:4;fill:#000;fill-rule:nonzero;opacity:1" transform="matrix(3.04 0 0 3.04 -222.782 -224.097)" vector-effect="non-scaling-stroke"/><path d="m334.77 287.67 6.51 8.62q.53.7-.35.71h-3.02q-1.02.01-1.6-.83-2.58-3.77-5.12-7.21a2.365 2.365 0 0 0-1.593-.945 2.134 2.134 0 0 0-1.707.525q-.04.04-.03.09.16 4.28.34 7.74.03.63-.61.63h-2.52a.685.685 0 0 1-.68-.68l-.18-22.88q-.01-.54.53-.54 3 .03 6.32.05c8.3.06 10.28 9.53 3.88 13.77q-.59.39-.17.95Zm-6.76-11.41-.02 8.4a.32.32 0 0 0 .31.32h1.44c1.337.006 2.621-.45 3.57-1.265.95-.816 1.485-1.926 1.49-3.085v-.3c.01-2.413-2.237-4.378-5.02-4.39h-1.44a.32.32 0 0 0-.33.32Z" style="stroke:none;stroke-width:1;stroke-dasharray:none;stroke-linecap:butt;stroke-dashoffset:0;stroke-linejoin:miter;stroke-miterlimit:4;fill:#000;fill-rule:nonzero;opacity:1" transform="matrix(3.04 0 0 3.04 -222.797 -224.068)" vector-effect="non-scaling-stroke"/><path d="M349.84 282.81q4.37-4.72 7.47-9.68.15-.24.43-.23l4.44.05a.15.15 0 0 1 .11.24l-9 10.82q-.29.35-.01.71l9.02 11.56q.56.72-.35.72h-3.17q-.91 0-1.47-.73l-7.33-9.76q-.86-1.14-.83.29l.23 9.76q.01.44-.43.44h-2.87q-.42 0-.43-.43l-.18-23.46q-.01-.18.17-.18l3.31-.01q.28 0 .28.28v9.37q0 .91.61.24Z" style="stroke:none;stroke-width:1;stroke-dasharray:none;stroke-linecap:butt;stroke-dashoffset:0;stroke-linejoin:miter;stroke-miterlimit:4;fill:#000;fill-rule:nonzero;opacity:1" transform="matrix(3.04 0 0 3.04 -222.863 -224.068)" vector-effect="non-scaling-stroke"/><path d="m370.01 276.35-.01 6.43a.35.35 0 0 0 .35.35l6.77.01a.35.35 0 0 1 .34.43l-.58 2.37a.35.35 0 0 1-.34.26l-6.18.02a.35.35 0 0 0-.35.35l-.01 7.01a.35.35 0 0 0 .35.35l8.21.04a.35.35 0 0 1 .34.43l-.56 2.33a.35.35 0 0 1-.34.27h-11.26a.35.35 0 0 1-.35-.35l-.18-23.38a.35.35 0 0 1 .35-.35l11.6.01a.35.35 0 0 1 .35.35l.02 2.37a.35.35 0 0 1-.35.35h-7.82a.35.35 0 0 0-.35.35Z" style="stroke:none;stroke-width:1;stroke-dasharray:none;stroke-linecap:butt;stroke-dashoffset:0;stroke-linejoin:miter;stroke-miterlimit:4;fill:#000;fill-rule:nonzero;opacity:1" transform="matrix(3.04 0 0 3.04 -222.862 -224.078)" vector-effect="non-scaling-stroke"/><path d="m394.79 287.69 6.41 8.5q.61.81-.4.81h-3.12a1.43 1.43 0 0 1-1.15-.58q-2.45-3.4-5.18-7.33c-.7-1.01-1.97-1.16-3.06-.93q-.35.07-.34.43l.2 7.95q.02.46-.44.46h-2.64a.685.685 0 0 1-.68-.68l-.18-22.88q-.01-.53.52-.53 3.28-.01 6.69.07c8.08.18 9.7 9.65 3.54 13.71q-.61.41-.17 1Zm-6.78-11.43-.02 8.4a.32.32 0 0 0 .31.32h1.44c1.337.006 2.621-.448 3.57-1.262.95-.814 1.485-1.921 1.49-3.078v-.32c.01-2.407-2.237-4.368-5.02-4.38h-1.44a.32.32 0 0 0-.33.32Z" style="stroke:none;stroke-width:1;stroke-dasharray:none;stroke-linecap:butt;stroke-dashoffset:0;stroke-linejoin:miter;stroke-miterlimit:4;fill:#000;fill-rule:nonzero;opacity:1" transform="matrix(3.04 0 0 3.04 -222.856 -224.038)" vector-effect="non-scaling-stroke"/><path d="M328.01 276.26a.32.32 0 0 1 .33-.32h1.44c2.783.012 5.03 1.977 5.02 4.39v.3c-.005 1.16-.54 2.269-1.49 3.085-.949.816-2.233 1.27-3.57 1.265h-1.44a.32.32 0 0 1-.31-.32l.02-8.4Z" style="stroke:none;stroke-width:1;stroke-dasharray:none;stroke-linecap:butt;stroke-dashoffset:0;stroke-linejoin:miter;stroke-miterlimit:4;fill:#eafaf6;fill-rule:nonzero;opacity:1" transform="matrix(3.04 0 0 3.04 -222.866 -224.068)" vector-effect="non-scaling-stroke"/><path d="M345.87 361.87q-4.74 4.52-11.1 4.49-4-.02-9.96-2.94-5.62-2.75-11.7-5.43c-4.61-2.02-9.07-2.5-13.56-.8q-3.35 1.27-6.25 2.47c-6.07 2.5-9.11 6.88-11.4 13.23q-1.94 5.38-3.82 10.64-2.06 5.75-4.53 8.45c-3.46 3.79-8.32 5.22-13.66 5.08q-8.38-.2-16.68-.02-5.68.13-9.14-1.42c-5.45-2.42-7.24-5.58-9.33-10.98q-2.95-7.67-5.71-15.39-1.69-4.71-6.8-8.04-1.32-.86-4.06-1.89c-4.27-1.6-7.61-3.36-12.38-3.1q-3.1.16-7.81 2.3-4.2 1.91-8.52 3.99-7.49 3.59-10.41 3.77c-6.32.39-10.38-1.88-14.54-6.16q-6.64-6.84-13.4-13.52c-5.98-5.92-6.09-13.25-2.45-20.6q2.16-4.35 3.91-8.89.65-1.68 2.44-1.68 33.99.03 68.72 0c3.69 0 6.93 2.64 10.28 3.94q22.7 8.76 46.02 2.64c2.88-.75 5.67-1.89 8.49-2.81 3.3-1.08 6.63-3.77 10.12-3.77q33.15.04 69.09.01c.743 0 1.412.45 1.69 1.14q1.84 4.64 4.09 9.17 2.26 4.56 2.51 8c.65 8.79-4.31 12.38-10.74 18.87q-5.2 5.25-9.41 9.25Z" style="stroke:none;stroke-width:1;stroke-dasharray:none;stroke-linecap:butt;stroke-dashoffset:0;stroke-linejoin:miter;stroke-miterlimit:4;fill:#000;fill-rule:nonzero;opacity:1" transform="matrix(3.04 0 0 3.04 -222.796 -224.13)" vector-effect="non-scaling-stroke"/></svg>